<?xml version="1.0" encoding="UTF-8"?>
<svg width="500px" height="500px" viewBox="0 0 500 500" version="1.1" xmlns="http://www.w3.org/2000/svg" xmlns:xlink="http://www.w3.org/1999/xlink">
    <title>logo</title>
    <g id="Page-1" stroke="none" stroke-width="1" fill="none" fill-rule="evenodd">
        <g id="Group" fill-rule="nonzero">
            <g id="logo">
                <polygon id="Path" fill="#FFFFFF" points="0 0 500 0 500 500 0 500"></polygon>
                <g id="Group-2" transform="translate(121.000000, 110.000000)">
                    <path d="M39.0942951,2 C57.5337468,2 68.6216226,8.79948115 68.6216226,23.4932092 C68.6216226,32.8428201 64.1643274,39.035251 56.0866065,41.9537616 C65.127371,44.623226 72,51.1814436 72,62.9592553 C72,82.2655272 53.6738476,87 37.6497298,87 L1,87 L1,2 L39.0917202,2 L39.0942951,2 Z M38.5399473,51.0052662 L23,51.0052662 L23,69 L38.5346795,69 C45.4381036,69 50,66.7802809 50,59.9973669 C50,53.2144529 45.4381036,51 38.5346795,51 L38.5399473,51.0052662 L38.5399473,51.0052662 Z M36.7228188,19 L23,19 L23,34.8790667 L36.7279642,35 C42.6297539,35 46,31.9240881 46,27.002629 C46,22.0811699 42.6271812,19.002629 36.7279642,19.002629 M124.496111,0 C154.829445,0 170,20.4933271 170,44 C170,67.5066729 154.832037,88 124.496111,88 C94.1627781,88 79,67.5092484 79,44 C79,20.4933271 94.1601857,0 124.496111,0 Z M124.501299,21 C109.784514,21 102,31.003013 102,44.5 C102,57.996987 109.784514,68 124.501299,68 C139.215486,68 147,57.9995617 147,44.5 C147,31.003013 139.215486,21 124.498701,21 L124.501299,21 Z M182,86.9974059 L182,2 L203.108247,2 L236.164948,50.8152715 C235.804124,46.8100223 235.68299,41.4662313 235.68299,36.7294534 L235.68299,2.00518815 L258,2.00518815 L258,87 L236.891753,87 L203.835052,38.3092441 C204.195876,42.3170873 204.31701,47.6608783 204.31701,52.2731407 L204.31701,87 L182,87 L182,86.9974059 Z M90,184 L123.733162,98 L148.266838,98 L182,184 L158.692234,184 L153.786014,170.484314 L118.213986,170.484314 L113.30519,184 L90,184 Z M125,153 L147,153 L138.198974,127.84387 C137.164899,124.982279 136.427884,122.018139 136,119 C135.570999,122.017325 134.833128,124.980571 133.79846,127.841255 L125,153 L125,153 Z M221.271491,98 C242.670719,98 259,104.881857 259,127.487778 C259,150.091119 242.670719,156.849165 221.271491,156.972976 L209.887486,156.972976 L209.887486,184 L187,184 L187,98.0025794 L221.271491,98.0025794 L221.271491,98 Z M222.196977,118 L210,118 L210,138 L222.196977,138 C228.959834,138 235,135.874295 235,128.001312 C235,120.123081 228.959834,118.002624 222.196977,118.002624 L222.196977,118 Z M0,281 L33.3689998,196 L57.6335926,196 L91,281 L67.9486369,281 L63.0957183,267.644488 L27.9068741,267.644488 L23.0539555,281 L0,281 Z M34,249 L56,249 L47.2,224.581859 C46.1650447,221.805171 45.4272446,218.928834 44.9986944,216 C44.5708959,218.928721 43.833974,221.805046 42.8,224.581859 L34,249 L34,249 Z M102,281 L102,196 L137.89721,196 C155.177682,196 172.822118,202.187431 172.822118,224.656757 C172.822118,238.743865 165.883412,246.394488 156.516548,250.158833 L180,280.994811 L154.569343,280.994811 L134.247175,253.310921 L124.513749,253.310921 L124.513749,280.994811 L102,281 L102,281 Z M125,235 L139.250697,235 C145.649706,235 150,231.668425 150,225 C150,218.331575 145.649706,215 139.250697,215 L125,215 L125,235 Z M254,196 L254,216.035863 L230.225734,216.035863 L230.225734,281 L207.898037,281 L207.898037,216.038457 L184,216.038457 L184,196 L254,196 L254,196 Z" id="Shape" fill="#231F20"></path>
                    <path d="M87,185 L2,185 L2,100 L87,100 L87,184.994877 L87,185 Z M26,160 L62,160 L62,124 L26,124 L26,160 Z" id="Shape" fill="#C2D830"></path>
                </g>
            </g>
        </g>
    </g>
</svg>